<svg xmlns="http://www.w3.org/2000/svg" version="1.0" width="594.000000pt" height="420.000000pt" viewBox="0 0 594.000000 420.000000" preserveAspectRatio="xMidYMid meet">
<metadata fill="#fdd391">
Created by potrace 1.16, written by Peter Selinger 2001-2019
</metadata>
<g transform="translate(0.000000,420.000000) scale(0.100000,-0.100000)" fill="#fdd391" stroke="none">
<path d="M3208 2969 c-10 -5 -50 -18 -90 -28 -73 -19 -73 -19 -76 -542 -2 -505 -1 -525 18 -556 33 -55 85 -74 192 -71 93 3 93 3 93 33 0 26 -4 30 -30 33 -16 2 -36 11 -42 20 -10 12 -13 139 -13 557 0 586 0 585 -52 554z" fill="#fdd391"/>
<path d="M3545 2961 c-22 -10 -57 -21 -78 -24 -71 -11 -67 24 -67 -540 0 -510 0 -510 25 -553 34 -58 82 -75 200 -72 86 3 90 4 93 27 4 26 -12 41 -43 41 -52 1 -50 -22 -55 577 -6 621 0 578 -75 544z" fill="#fdd391"/>
<path d="M4879 2970 c-8 -5 -49 -17 -89 -28 -74 -19 -75 -20 -83 -58 -4 -22 -7 -258 -5 -526 3 -473 4 -487 24 -514 45 -61 66 -69 182 -69 107 0 107 0 107 30 0 26 -4 30 -32 33 -17 2 -37 10 -45 19 -10 13 -14 130 -18 566 -3 354 -9 551 -15 553 -5 2 -17 -1 -26 -6z" fill="#fdd391"/>
<path d="M1555 2925 c-161 -34 -210 -46 -219 -55 -12 -12 0 -40 19 -40 9 0 29 -7 45 -15 30 -16 30 -16 30 -566 0 -595 -2 -617 -53 -681 -47 -59 -89 -71 -272 -75 -168 -5 -223 4 -348 53 -47 18 -48 18 -85 -1 -20 -11 -45 -35 -55 -53 -17 -29 -18 -39 -8 -72 6 -22 24 -49 39 -61 26 -20 34 -21 172 -16 191 8 290 30 740 164 63 19 149 43 190 54 77 21 107 39 96 58 -4 6 -22 11 -41 11 -49 0 -115 39 -132 78 -20 47 -17 427 4 448 18 18 16 18 63 -6 65 -33 94 -89 160 -306 47 -158 82 -229 122 -250 30 -16 86 -17 267 -7 95 5 124 10 129 21 7 19 -19 38 -65 47 -74 14 -131 80 -259 300 -94 161 -198 256 -301 272 -18 3 -33 11 -33 17 0 6 48 61 108 121 101 105 111 112 169 128 35 9 80 17 101 17 42 0 79 21 68 38 -5 9 -67 12 -207 12 -174 0 -200 -2 -206 -16 -7 -19 13 -34 47 -34 29 0 50 -16 50 -38 0 -8 -37 -55 -81 -106 -45 -50 -93 -108 -107 -128 -13 -21 -28 -38 -33 -38 -5 0 -8 161 -7 359 0 197 -2 363 -6 370 -9 13 -22 13 -101 -4z" fill="#fdd391"/>
<path d="M2478 2701 c-67 -22 -134 -59 -165 -93 -21 -23 -23 -32 -20 -143 2 -103 4 -120 19 -123 13 -2 21 9 31 45 46 154 138 283 203 283 50 0 79 -15 103 -54 27 -44 41 -167 21 -191 -19 -23 -99 -61 -187 -89 -173 -54 -250 -109 -273 -191 -26 -95 13 -210 88 -260 90 -59 237 -68 334 -19 57 29 63 29 63 6 0 -11 25 -29 75 -54 77 -38 105 -45 114 -29 4 5 6 168 7 362 0 353 0 353 -35 424 -27 54 -45 76 -78 97 -84 51 -195 62 -300 29z m212 -516 c-8 -195 -23 -249 -82 -285 -37 -22 -103 -26 -142 -8 -33 14 -66 100 -66 170 0 113 42 170 173 235 39 20 80 45 91 56 10 10 21 15 25 10 4 -4 4 -85 1 -178z" fill="#fdd391"/>
<path d="M3938 2710 c-51 -15 -98 -51 -131 -98 -32 -47 -32 -47 -35 -342 -2 -188 0 -308 7 -331 18 -61 67 -118 124 -145 50 -23 62 -24 253 -24 217 0 257 7 320 55 17 13 44 48 58 77 26 52 26 52 26 332 0 167 -4 296 -11 319 -13 47 -69 111 -123 140 -38 20 -57 22 -251 24 -115 1 -222 -2 -237 -7z m280 -142 c2 -9 -4 -23 -13 -31 -59 -59 -69 -175 -30 -330 30 -116 33 -220 8 -272 -10 -21 -24 -35 -35 -35 -23 0 -23 16 2 65 29 57 30 50 -29 300 -26 114 -3 239 57 308 18 20 36 18 40 -5z" fill="#fdd391"/>
<path d="M3134 1576 c-17 -8 -45 -33 -62 -57 -101 -136 45 -318 189 -237 38 21 56 49 44 68 -10 16 -32 12 -71 -15 -44 -30 -67 -26 -108 17 -25 27 -28 36 -24 80 3 27 13 57 23 68 24 27 88 27 122 0 19 -15 30 -17 44 -9 37 20 15 55 -54 84 -44 18 -62 18 -103 1z" fill="#fdd391"/>
<path d="M3716 1568 c-9 -12 -16 -26 -16 -30 0 -4 -11 -31 -24 -60 -100 -221 -99 -218 -61 -218 30 0 36 9 83 124 21 48 41 89 46 90 5 0 13 -12 19 -29 5 -16 18 -50 29 -75 12 -25 27 -60 35 -77 10 -25 20 -33 38 -33 18 0 25 5 25 20 0 24 -107 268 -128 293 -20 22 -28 22 -46 -5z" fill="#fdd391"/>
<path d="M4202 1578 c-13 -13 -18 -271 -6 -302 8 -21 50 -21 58 0 3 8 3 38 0 65 -5 37 -3 49 7 50 8 0 34 1 59 2 38 2 45 5 48 24 4 30 -27 45 -78 37 -41 -7 -41 -7 -38 32 3 39 3 39 72 39 72 0 96 14 83 49 -5 13 -23 16 -100 16 -59 0 -97 -4 -105 -12z" fill="#fdd391"/>
<path d="M4722 1578 c-17 -17 -17 -289 0 -306 8 -8 49 -12 120 -12 88 0 110 3 114 15 4 8 0 23 -7 31 -11 14 -28 16 -96 11 -83 -5 -83 -5 -83 34 0 38 0 38 61 41 47 2 65 7 73 21 19 31 -18 50 -81 42 -53 -6 -53 -6 -53 33 0 39 0 39 86 38 70 -1 88 2 97 16 8 12 7 21 -2 32 -11 13 -35 16 -115 16 -66 0 -106 -4 -114 -12z" fill="#fdd391"/>
</g>
</svg>